<svg width="24" height="23" viewBox="0 0 24 23" fill="none" xmlns="http://www.w3.org/2000/svg">
<path d="M5.18636 22.1678C4.43017 22.973 3.16446 23.0127 2.35932 22.2565C1.55417 21.5003 1.51449 20.2346 2.27067 19.4295L5.18636 22.1678ZM20.6839 0.679722C21.7879 0.645103 22.711 1.51203 22.7456 2.61606L23.3098 20.6072C23.3444 21.7112 22.4775 22.6343 21.3734 22.6689C20.2694 22.7035 19.3463 21.8366 19.3117 20.7326L18.8103 4.74044L2.81812 5.24191C1.71409 5.27653 0.791037 4.4096 0.756418 3.30557C0.721798 2.20155 1.58872 1.27849 2.69275 1.24387L20.6839 0.679722ZM2.27067 19.4295L19.2887 1.30954L22.2044 4.04793L5.18636 22.1678L2.27067 19.4295Z" fill="white"/>
</svg>
