<svg width="100" height="100" viewBox="0 0 100 100" fill="none" xmlns="http://www.w3.org/2000/svg">
<g id="download-icon">
<rect id="download-rect" x="24" y="71" width="53" height="5" rx="2.5" fill="#D9D9D9"/>
<path id="download-arrow" d="M53.5 23C53.5 21.6193 52.3807 20.5 51 20.5C49.6193 20.5 48.5 21.6193 48.5 23H53.5ZM49.2322 62.7678C50.2085 63.7441 51.7915 63.7441 52.7678 62.7678L68.6777 46.8579C69.654 45.8816 69.654 44.2986 68.6777 43.3223C67.7014 42.346 66.1184 42.346 65.1421 43.3223L51 57.4645L36.8579 43.3223C35.8816 42.346 34.2986 42.346 33.3223 43.3223C32.346 44.2986 32.346 45.8816 33.3223 46.8579L49.2322 62.7678ZM48.5 23L48.5 61H53.5L53.5 23H48.5Z" fill="white"/>
</g>
</svg>
